HIERARCHY
ROOT Hips
{
	OFFSET -3.958830 18.904000 13.208200
	CHANNELS 6 Xposition Yposition Zposition Zrotation Yrotation Xrotation 
	JOINT LHipJoint
	{
		OFFSET 0.000000 0.000000 0.000000
		CHANNELS 3 Zrotation Yrotation Xrotation
		JOINT LeftUpLeg
		{
			OFFSET 1.800000 -1.400000 0.085000
			CHANNELS 3 Zrotation Yrotation Xrotation
			JOINT LeftLeg
			{
				OFFSET 2.215000 -6.000000 0.000000
				CHANNELS 3 Zrotation Yrotation Xrotation
				JOINT LeftFoot
				{
					OFFSET 2.500000 -6.900000 0.000000
					CHANNELS 3 Zrotation Yrotation Xrotation
					JOINT LeftToeBase
					{
						OFFSET 0.200000 -0.500000 1.950000
						CHANNELS 3 Zrotation Yrotation Xrotation
						End Site
						{
							OFFSET 0.000000 0.000000 0.000000
						}
					}
				}
			}
		}
	}
	JOINT RHipJoint
	{
		OFFSET 0.000000 0.000000 0.000000
		CHANNELS 3 Zrotation Yrotation Xrotation
		JOINT RightUpLeg
		{
			OFFSET -1.800000 -1.400000 0.085000
			CHANNELS 3 Zrotation Yrotation Xrotation
			JOINT RightLeg
			{
				OFFSET -2.215000 -6.000000 0.000000
				CHANNELS 3 Zrotation Yrotation Xrotation
				JOINT RightFoot
				{
					OFFSET -2.500000 -6.900000 0.000000
					CHANNELS 3 Zrotation Yrotation Xrotation
					JOINT RightToeBase
					{
						OFFSET -0.200000 -0.500000 1.950000
						CHANNELS 3 Zrotation Yrotation Xrotation
						End Site
						{
							OFFSET 0.000000 0.000000 0.000000
						}
					}
				}
			}
		}
	}
	JOINT LowerBack
	{
		OFFSET 0.000000 0.000000 0.000000
		CHANNELS 3 Zrotation Yrotation Xrotation
		JOINT Spine
		{
			OFFSET -0.087000 1.940000 -0.288900
			CHANNELS 3 Zrotation Yrotation Xrotation
			JOINT Spine1
			{
				OFFSET 0.000000 1.950000 0.060000
				CHANNELS 3 Zrotation Yrotation Xrotation
				JOINT Neck
				{
					OFFSET 0.000000 0.000000 0.000000
					CHANNELS 3 Zrotation Yrotation Xrotation
					JOINT Neck1
					{
						OFFSET 0.000000 1.600000 0.340000
						CHANNELS 3 Zrotation Yrotation Xrotation
						JOINT Head
						{
							OFFSET 0.000000 1.667000 -0.240000
							CHANNELS 3 Zrotation Yrotation Xrotation
							End Site
							{
								OFFSET 0.000000 0.000000 0.000000
							}
						}
					}
				}
				JOINT LeftShoulder
				{
					OFFSET 0.000000 0.000000 0.000000
					CHANNELS 3 Zrotation Yrotation Xrotation
					JOINT LeftArm
					{
						OFFSET 2.700000 1.550000 -0.730000
						CHANNELS 3 Zrotation Yrotation Xrotation
						JOINT LeftForeArm
						{
							OFFSET 5.450000 0.000000 0.000000
							CHANNELS 3 Zrotation Yrotation Xrotation
							JOINT LeftHand
							{
								OFFSET 3.450000 0.000000 0.000000
								CHANNELS 3 Zrotation Yrotation Xrotation
								JOINT LeftHandIndex1
								{
									OFFSET 0.750000 0.000000 0.000000
									CHANNELS 3 Zrotation Yrotation Xrotation
									End Site
									{
										OFFSET 0.000000 0.000000 0.000000
									}
								}
							}
						}
					}
				}
				JOINT RightShoulder
				{
					OFFSET 0.000000 0.000000 0.000000
					CHANNELS 3 Zrotation Yrotation Xrotation
					JOINT RightArm
					{
						OFFSET -2.700000 1.550000 -0.730000
						CHANNELS 3 Zrotation Yrotation Xrotation
						JOINT RightForeArm
						{
							OFFSET -5.450000 0.000000 0.000000
							CHANNELS 3 Zrotation Yrotation Xrotation
							JOINT RightHand
							{
								OFFSET -3.450000 0.000000 0.000000
								CHANNELS 3 Zrotation Yrotation Xrotation
								JOINT RightHandIndex1
								{
									OFFSET -0.750000 0.000000 0.000000
									CHANNELS 3 Zrotation Yrotation Xrotation
									End Site
									{
										OFFSET 0.000000 0.000000 0.000000
									}
								}
							}
						}
					}
				}
			}
		}
	}
}
MOTION
Frames: 7
Frame Time: 0.016667
8.148490 15.328290 3.578430 -13.111608 81.827852 -23.498101 -16.396043 12.768523 1.931048 21.154902 1.089680 -14.689709 2.982768 12.692676 50.873581 1.040075 9.486748 1.183142 0.033990 -0.078430 -0.017950 17.133112 -9.947499 4.725002 -38.638430 2.660907 -27.963003 24.723444 -9.821850 16.595622 -0.299209 -6.020522 1.913228 -0.077660 -0.058690 0.041100 -5.530323 1.650678 -8.997127 21.804603 -0.602958 22.158600 -10.362154 5.695907 10.965912 5.833371 5.067220 -19.799010 12.723663 -30.813862 24.354133 4.751510 -30.434790 -12.170890 -5.902700 -23.481999 11.601126 -13.506549 10.199926 -6.822885 30.599420 -26.042544 -5.596937 -3.414125 3.328761 0.083970 -0.176710 0.007000 0.002750 -7.783113 30.669963 5.582896 -9.805133 17.862798 -2.231868 -3.728765 -14.887457 -0.441551 3.370344 -0.762185 0.063360 0.020230 0.020040 0.098570 
8.187550 15.337660 3.734890 -6.114334 75.970810 -19.976078 -16.297834 12.546238 1.610322 23.774951 1.465672 -7.370083 1.364277 13.577241 49.397590 1.062332 9.709980 1.174742 0.143320 0.102710 -0.053570 17.272816 -10.211013 4.603596 -36.593300 2.248911 -27.740240 26.301843 -11.058907 19.400140 -0.380368 -6.524923 1.766121 0.090290 0.070970 0.035600 -5.698127 1.974430 -8.999003 20.808802 -3.239464 22.918943 -10.164842 2.937748 19.528336 8.349035 2.620280 -19.923023 9.158579 -23.340090 25.282211 5.329250 -24.477640 -12.846640 2.217489 -23.337017 12.286895 -23.165865 12.997370 -10.596611 37.511678 -28.543250 -8.823546 -3.480159 3.477987 0.026580 -0.093900 -0.050430 0.091120 -18.541792 32.426103 1.438577 -2.785904 18.235936 0.268444 -3.213970 -22.573591 -1.115104 3.360509 -0.893870 0.031470 0.115140 0.008250 0.132480 
8.255890 15.363600 3.920750 -1.581820 69.826039 -17.815016 -16.102798 12.359378 1.539404 25.616567 1.339804 -1.162493 -0.625830 14.737534 48.079444 1.172266 10.000322 1.163622 0.183580 0.187610 -0.082810 17.491761 -10.316741 4.490712 -34.163380 2.038091 -27.885046 27.575869 -11.879363 21.283047 -0.439722 -6.813222 1.701949 0.168220 0.157210 0.015120 -5.726199 2.032976 -8.947171 18.412277 -5.910876 23.620954 -10.841003 0.415922 24.010465 9.028188 1.013035 -19.480158 6.255815 -16.954320 25.949723 5.742120 -19.816910 -11.803600 9.496705 -21.584146 12.134928 -33.368824 15.850898 -14.956010 42.907926 -32.485322 -12.247643 -3.516519 3.558323 -0.024370 -0.038190 -0.095790 0.145160 -25.618554 31.814472 1.173342 3.190267 20.325692 3.543992 0.207034 -27.221877 -2.275390 3.337152 -0.994242 0.007530 0.165230 -0.007570 0.156530 
8.343170 15.376850 4.111010 -0.951668 63.016244 -17.483798 -15.878971 12.328071 1.646646 26.982151 0.818006 2.646607 -2.086014 15.864259 47.906051 1.308509 10.367064 1.093825 0.155380 0.141570 -0.077340 17.712048 -10.192162 4.486463 -30.919841 2.916780 -29.312807 29.646387 -12.593186 22.934366 -0.523453 -6.946494 1.685738 0.130110 0.157870 0.025130 -5.441406 1.682459 -8.898951 17.808083 -7.067544 24.587342 -10.158140 -1.000299 23.059625 7.817997 -0.032909 -19.019306 3.826346 -14.298628 26.003600 5.088170 -17.376810 -11.059450 11.808464 -19.557205 11.914083 -39.793064 16.940493 -17.020364 39.708903 -35.301358 -12.112400 -3.496972 3.538792 -0.006640 -0.030130 -0.092410 0.134010 -26.017649 29.547346 4.646724 5.313715 22.100463 -2.182786 5.490414 -40.582326 -4.800450 3.532635 -0.767002 -0.001270 0.145320 -0.000600 0.137470 
8.408640 15.376950 4.323440 0.469156 55.442812 -17.114736 -15.664770 12.336012 1.907735 27.970867 0.063965 6.403692 -4.448326 17.699631 48.365625 1.480398 10.969163 0.949583 0.099080 0.067420 -0.082990 17.893671 -10.127561 4.398319 -27.019912 4.230558 -30.079930 30.354248 -13.233398 25.519192 -0.577284 -7.067306 1.684245 0.089900 0.182010 0.031900 -4.993401 1.329612 -8.838399 15.636610 -8.159613 27.766509 -10.034079 -2.384939 20.185691 6.786193 0.089482 -18.358008 3.649033 -10.366785 25.339059 4.562670 -13.278380 -9.619240 15.055465 -16.826965 11.852581 -46.985658 20.296487 -20.596106 35.832160 -38.455366 -11.673536 -3.572027 3.540086 0.006970 0.006290 -0.109960 0.105590 -28.246709 27.415812 6.464803 10.310974 26.202857 -7.567985 14.739059 -56.078665 -11.702263 3.632141 -0.740438 -0.034550 0.131730 0.032310 0.102340 
8.503760 15.356700 4.572830 0.960568 51.079457 -13.585692 -15.556691 12.575397 2.174738 27.691739 -0.764125 4.197591 -5.200630 18.381528 49.578612 1.554272 11.141564 0.869011 0.004400 -0.104700 -0.043010 17.943698 -9.880219 4.533194 -24.035470 5.199671 -32.373889 31.091632 -13.442786 25.907002 -0.587998 -6.856841 1.776570 -0.058060 0.078520 0.040480 -4.394094 0.314762 -8.900367 15.070932 -6.415773 27.084089 -9.087388 -0.597017 11.590357 4.943947 0.866732 -18.917733 3.799097 -14.340165 28.217666 1.500060 -15.621060 -7.041630 8.302551 -12.948922 8.858698 -35.087998 17.245437 -14.419689 29.377007 -36.786090 -7.973503 -3.459381 3.329551 0.071710 -0.042760 -0.069350 0.029350 -20.322378 22.966411 11.801823 11.792336 17.712695 -9.281308 9.189363 -50.286259 -6.142797 3.797166 -0.780358 -0.023970 0.051070 0.052100 0.048300 
8.578790 15.370400 4.837940 2.582024 46.584703 -9.819354 -15.466710 12.715131 2.336462 25.654270 -0.737459 1.712731 -5.008692 19.087850 52.241300 1.680657 11.386717 0.777459 -0.071730 -0.215380 -0.038420 17.973936 -10.001814 4.553429 -20.126729 6.360875 -34.501391 28.662870 -13.363701 27.951447 -0.545961 -6.530065 1.903198 -0.163160 0.024100 0.036380 -4.212640 0.220636 -8.908756 12.792597 -4.831273 27.230987 -8.224748 0.711489 0.809657 2.448426 2.732823 -17.672214 6.231905 -15.175579 31.697014 1.239960 -16.037380 -4.132530 5.439836 -6.656993 5.981975 -28.391782 20.805594 -12.728783 21.070687 -45.117631 -5.351131 -3.333309 3.287100 0.115750 -0.077610 -0.033000 -0.015280 -14.489484 15.315496 13.321395 14.867359 13.326566 -4.163185 0.917828 -35.494687 -0.404576 3.649731 -0.908976 -0.016500 0.003550 0.066490 0.026260 
